; NON-PLATED HOLES START AT T1
; THROUGH (PLATED) HOLES START AT T100
M48
INCH
T1C0.130000
T2C0.125984
T100C0.046472
T101C0.078740
T102C0.031497
T103C0.059055
T104C0.036111
T105C0.038000
T106C0.035000
T107C0.043307
%
T1
X015967Y016268
T2
X035967Y001368
X035967Y026368
X007967Y001368
X007967Y026368
T100
X016967Y010368
X015967Y010368
X014967Y010368
T101
X020967Y024368
X011967Y024368
T102
X020967Y019368
X020967Y018384
T103
X004967Y024368
X004967Y022400
T104
X034968Y013368
X025968Y014368
X034968Y015368
X034968Y012368
X034968Y016368
X034968Y009368
X034968Y010368
X025968Y011368
X025968Y012368
X025968Y015368
X034968Y014368
X025968Y013368
X025968Y016368
X025968Y009368
X034968Y011368
X025968Y010368
T105
X029968Y025368
X029961Y022372
X004334Y018597
X006700Y018597
X001967Y005368
X009058Y005368
T106
X024047Y021368
X011967Y012368
X011967Y013368
X020967Y013368
X020967Y012368
X024047Y016368
T107
X037875Y007396
X037875Y009364
X037875Y013301
X037875Y017238
X037875Y011333
X037875Y015270
X037875Y019207
T00
M30
