G04 MADE WITH FRITZING*
G04 WWW.FRITZING.ORG*
G04 DOUBLE SIDED*
G04 HOLES PLATED*
G04 CONTOUR ON CENTER OF CONTOUR VECTOR*
%ASAXBY*%
%FSLAX23Y23*%
%MOIN*%
%OFA0B0*%
%SFA1.0B1.0*%
%ADD10C,0.078000*%
%ADD11C,0.157480*%
%ADD12C,0.053528*%
%ADD13C,0.075000*%
%ADD14C,0.062992*%
%ADD15C,0.077778*%
%ADD16C,0.083307*%
%ADD17C,0.099055*%
%ADD18R,0.075000X0.075000*%
%ADD19R,0.062992X0.062992*%
%ADD20R,0.083307X0.083307*%
%ADD21R,0.099055X0.099055*%
%ADD22C,0.048000*%
%ADD23C,0.024000*%
%ADD24R,0.001000X0.001000*%
%LNCOPPER0*%
G90*
G70*
G54D10*
X2996Y2237D03*
X2997Y2537D03*
X670Y1860D03*
X433Y1860D03*
X906Y537D03*
X197Y537D03*
G54D11*
X1197Y2437D03*
X2097Y2437D03*
G54D12*
X1497Y1037D03*
X1597Y1037D03*
X1697Y1037D03*
G54D13*
X1197Y1237D03*
X1197Y1337D03*
X2097Y1237D03*
X2097Y1337D03*
G54D14*
X2097Y1937D03*
X2097Y1838D03*
G54D13*
X2405Y1637D03*
X2405Y2137D03*
G54D15*
X3497Y937D03*
X3497Y1037D03*
X3497Y1137D03*
X3497Y1237D03*
X3497Y1337D03*
X3497Y1437D03*
X3497Y1537D03*
X3497Y1637D03*
X2597Y1637D03*
X2597Y1537D03*
X2597Y1437D03*
X2597Y1337D03*
X2597Y1237D03*
X2597Y1137D03*
X2597Y1037D03*
X2597Y937D03*
G54D16*
X3788Y1921D03*
X3788Y1724D03*
X3788Y1527D03*
X3788Y1330D03*
X3788Y1133D03*
X3788Y936D03*
X3788Y740D03*
G54D17*
X497Y2240D03*
X497Y2437D03*
G54D18*
X1197Y1237D03*
X2097Y1237D03*
G54D19*
X2097Y1937D03*
G54D20*
X3788Y1921D03*
G54D21*
X497Y2240D03*
G54D22*
X1597Y1236D02*
X1214Y1237D01*
D02*
X2079Y1237D02*
X1597Y1236D01*
D02*
X1297Y1237D02*
X1214Y1237D01*
D02*
X1597Y1236D02*
X1297Y1237D01*
D02*
X1597Y1060D02*
X1597Y1236D01*
D02*
X2297Y1535D02*
X2297Y1236D01*
D02*
X2297Y1236D02*
X2114Y1237D01*
D02*
X2579Y1537D02*
X2297Y1535D01*
G54D23*
D02*
X2495Y1037D02*
X2584Y1124D01*
D02*
X3697Y1137D02*
X3699Y735D01*
D02*
X3699Y735D02*
X2495Y735D01*
D02*
X2495Y735D02*
X2495Y1037D01*
D02*
X3766Y1134D02*
X3697Y1137D01*
G54D22*
D02*
X1597Y535D02*
X1597Y1014D01*
D02*
X3897Y537D02*
X1597Y535D01*
D02*
X3897Y937D02*
X3897Y537D01*
D02*
X3809Y937D02*
X3897Y937D01*
D02*
X3897Y937D02*
X3809Y937D01*
D02*
X3897Y1937D02*
X3897Y937D01*
D02*
X3797Y1937D02*
X3897Y1937D01*
D02*
X3797Y1937D02*
X3797Y1937D01*
D02*
X2095Y1636D02*
X2097Y1354D01*
D02*
X2579Y1637D02*
X2095Y1636D01*
D02*
X2579Y1637D02*
X2422Y1637D01*
D02*
X2997Y1535D02*
X2996Y2218D01*
D02*
X2615Y1537D02*
X2997Y1535D01*
D02*
X3016Y2537D02*
X3496Y2535D01*
D02*
X3496Y2535D02*
X3497Y2037D01*
D02*
X3497Y2037D02*
X3773Y1740D01*
G54D23*
D02*
X3772Y1709D02*
X3510Y1450D01*
D02*
X3769Y1515D02*
X3512Y1347D01*
G54D22*
D02*
X896Y1236D02*
X1179Y1237D01*
D02*
X906Y556D02*
X896Y1236D01*
D02*
X197Y556D02*
X196Y1337D01*
D02*
X196Y1337D02*
X1179Y1337D01*
D02*
X437Y1878D02*
X492Y2211D01*
D02*
X1157Y2437D02*
X526Y2437D01*
D02*
X1898Y2137D02*
X697Y2137D01*
D02*
X697Y2137D02*
X672Y1879D01*
D02*
X2075Y2404D02*
X1898Y2137D01*
D02*
X2099Y2137D02*
X2387Y2137D01*
D02*
X2097Y1953D02*
X2099Y2137D01*
G54D24*
X1490Y1096D02*
X1504Y1096D01*
X1590Y1096D02*
X1604Y1096D01*
X1690Y1096D02*
X1704Y1096D01*
X1487Y1095D02*
X1507Y1095D01*
X1587Y1095D02*
X1607Y1095D01*
X1687Y1095D02*
X1707Y1095D01*
X1485Y1094D02*
X1510Y1094D01*
X1585Y1094D02*
X1610Y1094D01*
X1684Y1094D02*
X1710Y1094D01*
X1483Y1093D02*
X1511Y1093D01*
X1583Y1093D02*
X1611Y1093D01*
X1683Y1093D02*
X1711Y1093D01*
X1481Y1092D02*
X1513Y1092D01*
X1581Y1092D02*
X1613Y1092D01*
X1681Y1092D02*
X1713Y1092D01*
X1480Y1091D02*
X1514Y1091D01*
X1580Y1091D02*
X1614Y1091D01*
X1680Y1091D02*
X1714Y1091D01*
X1478Y1090D02*
X1516Y1090D01*
X1578Y1090D02*
X1616Y1090D01*
X1678Y1090D02*
X1716Y1090D01*
X1477Y1089D02*
X1517Y1089D01*
X1577Y1089D02*
X1617Y1089D01*
X1677Y1089D02*
X1717Y1089D01*
X1476Y1088D02*
X1518Y1088D01*
X1576Y1088D02*
X1618Y1088D01*
X1676Y1088D02*
X1718Y1088D01*
X1475Y1087D02*
X1519Y1087D01*
X1575Y1087D02*
X1619Y1087D01*
X1675Y1087D02*
X1719Y1087D01*
X1474Y1086D02*
X1520Y1086D01*
X1574Y1086D02*
X1620Y1086D01*
X1674Y1086D02*
X1720Y1086D01*
X1474Y1085D02*
X1520Y1085D01*
X1574Y1085D02*
X1620Y1085D01*
X1674Y1085D02*
X1720Y1085D01*
X1473Y1084D02*
X1521Y1084D01*
X1573Y1084D02*
X1621Y1084D01*
X1673Y1084D02*
X1721Y1084D01*
X1472Y1083D02*
X1522Y1083D01*
X1572Y1083D02*
X1622Y1083D01*
X1672Y1083D02*
X1722Y1083D01*
X1472Y1082D02*
X1523Y1082D01*
X1572Y1082D02*
X1622Y1082D01*
X1672Y1082D02*
X1722Y1082D01*
X1471Y1081D02*
X1523Y1081D01*
X1571Y1081D02*
X1623Y1081D01*
X1671Y1081D02*
X1723Y1081D01*
X1471Y1080D02*
X1524Y1080D01*
X1571Y1080D02*
X1624Y1080D01*
X1671Y1080D02*
X1724Y1080D01*
X1470Y1079D02*
X1524Y1079D01*
X1570Y1079D02*
X1624Y1079D01*
X1670Y1079D02*
X1724Y1079D01*
X1470Y1078D02*
X1524Y1078D01*
X1570Y1078D02*
X1624Y1078D01*
X1670Y1078D02*
X1724Y1078D01*
X1469Y1077D02*
X1525Y1077D01*
X1569Y1077D02*
X1625Y1077D01*
X1669Y1077D02*
X1725Y1077D01*
X1469Y1076D02*
X1525Y1076D01*
X1569Y1076D02*
X1625Y1076D01*
X1669Y1076D02*
X1725Y1076D01*
X1469Y1075D02*
X1525Y1075D01*
X1569Y1075D02*
X1625Y1075D01*
X1669Y1075D02*
X1725Y1075D01*
X1468Y1074D02*
X1526Y1074D01*
X1568Y1074D02*
X1626Y1074D01*
X1668Y1074D02*
X1726Y1074D01*
X1468Y1073D02*
X1526Y1073D01*
X1568Y1073D02*
X1626Y1073D01*
X1668Y1073D02*
X1726Y1073D01*
X1468Y1072D02*
X1526Y1072D01*
X1568Y1072D02*
X1626Y1072D01*
X1668Y1072D02*
X1726Y1072D01*
X1468Y1071D02*
X1526Y1071D01*
X1568Y1071D02*
X1626Y1071D01*
X1668Y1071D02*
X1726Y1071D01*
X1468Y1070D02*
X1526Y1070D01*
X1568Y1070D02*
X1626Y1070D01*
X1668Y1070D02*
X1726Y1070D01*
X1468Y1069D02*
X1526Y1069D01*
X1568Y1069D02*
X1626Y1069D01*
X1668Y1069D02*
X1726Y1069D01*
X1468Y1068D02*
X1526Y1068D01*
X1568Y1068D02*
X1626Y1068D01*
X1668Y1068D02*
X1726Y1068D01*
X1468Y1067D02*
X1527Y1067D01*
X1568Y1067D02*
X1626Y1067D01*
X1668Y1067D02*
X1726Y1067D01*
X1468Y1066D02*
X1527Y1066D01*
X1568Y1066D02*
X1627Y1066D01*
X1668Y1066D02*
X1727Y1066D01*
X1468Y1065D02*
X1527Y1065D01*
X1568Y1065D02*
X1627Y1065D01*
X1668Y1065D02*
X1727Y1065D01*
X1468Y1064D02*
X1527Y1064D01*
X1568Y1064D02*
X1627Y1064D01*
X1668Y1064D02*
X1727Y1064D01*
X1468Y1063D02*
X1527Y1063D01*
X1568Y1063D02*
X1627Y1063D01*
X1668Y1063D02*
X1727Y1063D01*
X1468Y1062D02*
X1527Y1062D01*
X1568Y1062D02*
X1627Y1062D01*
X1668Y1062D02*
X1727Y1062D01*
X1468Y1061D02*
X1527Y1061D01*
X1568Y1061D02*
X1627Y1061D01*
X1668Y1061D02*
X1727Y1061D01*
X1468Y1060D02*
X1527Y1060D01*
X1568Y1060D02*
X1627Y1060D01*
X1668Y1060D02*
X1727Y1060D01*
X1468Y1059D02*
X1527Y1059D01*
X1568Y1059D02*
X1627Y1059D01*
X1668Y1059D02*
X1727Y1059D01*
X1468Y1058D02*
X1527Y1058D01*
X1568Y1058D02*
X1627Y1058D01*
X1668Y1058D02*
X1727Y1058D01*
X1468Y1057D02*
X1527Y1057D01*
X1568Y1057D02*
X1627Y1057D01*
X1668Y1057D02*
X1727Y1057D01*
X1468Y1056D02*
X1491Y1056D01*
X1503Y1056D02*
X1527Y1056D01*
X1568Y1056D02*
X1591Y1056D01*
X1603Y1056D02*
X1627Y1056D01*
X1668Y1056D02*
X1691Y1056D01*
X1703Y1056D02*
X1727Y1056D01*
X1468Y1055D02*
X1488Y1055D01*
X1506Y1055D02*
X1527Y1055D01*
X1568Y1055D02*
X1588Y1055D01*
X1606Y1055D02*
X1627Y1055D01*
X1668Y1055D02*
X1688Y1055D01*
X1706Y1055D02*
X1727Y1055D01*
X1468Y1054D02*
X1486Y1054D01*
X1508Y1054D02*
X1527Y1054D01*
X1568Y1054D02*
X1586Y1054D01*
X1608Y1054D02*
X1627Y1054D01*
X1668Y1054D02*
X1686Y1054D01*
X1708Y1054D02*
X1727Y1054D01*
X1468Y1053D02*
X1485Y1053D01*
X1509Y1053D02*
X1527Y1053D01*
X1568Y1053D02*
X1585Y1053D01*
X1609Y1053D02*
X1627Y1053D01*
X1668Y1053D02*
X1685Y1053D01*
X1709Y1053D02*
X1727Y1053D01*
X1468Y1052D02*
X1483Y1052D01*
X1511Y1052D02*
X1527Y1052D01*
X1568Y1052D02*
X1583Y1052D01*
X1611Y1052D02*
X1627Y1052D01*
X1668Y1052D02*
X1683Y1052D01*
X1711Y1052D02*
X1727Y1052D01*
X1468Y1051D02*
X1482Y1051D01*
X1512Y1051D02*
X1527Y1051D01*
X1568Y1051D02*
X1582Y1051D01*
X1612Y1051D02*
X1627Y1051D01*
X1668Y1051D02*
X1682Y1051D01*
X1712Y1051D02*
X1727Y1051D01*
X1468Y1050D02*
X1481Y1050D01*
X1513Y1050D02*
X1527Y1050D01*
X1568Y1050D02*
X1581Y1050D01*
X1613Y1050D02*
X1627Y1050D01*
X1668Y1050D02*
X1681Y1050D01*
X1713Y1050D02*
X1727Y1050D01*
X1468Y1049D02*
X1481Y1049D01*
X1513Y1049D02*
X1527Y1049D01*
X1568Y1049D02*
X1581Y1049D01*
X1613Y1049D02*
X1627Y1049D01*
X1668Y1049D02*
X1681Y1049D01*
X1713Y1049D02*
X1727Y1049D01*
X1468Y1048D02*
X1480Y1048D01*
X1514Y1048D02*
X1527Y1048D01*
X1568Y1048D02*
X1580Y1048D01*
X1614Y1048D02*
X1627Y1048D01*
X1668Y1048D02*
X1680Y1048D01*
X1714Y1048D02*
X1727Y1048D01*
X1468Y1047D02*
X1479Y1047D01*
X1515Y1047D02*
X1527Y1047D01*
X1568Y1047D02*
X1579Y1047D01*
X1615Y1047D02*
X1627Y1047D01*
X1668Y1047D02*
X1679Y1047D01*
X1715Y1047D02*
X1727Y1047D01*
X1468Y1046D02*
X1479Y1046D01*
X1515Y1046D02*
X1527Y1046D01*
X1568Y1046D02*
X1579Y1046D01*
X1615Y1046D02*
X1627Y1046D01*
X1668Y1046D02*
X1679Y1046D01*
X1715Y1046D02*
X1727Y1046D01*
X1468Y1045D02*
X1478Y1045D01*
X1516Y1045D02*
X1527Y1045D01*
X1568Y1045D02*
X1578Y1045D01*
X1616Y1045D02*
X1627Y1045D01*
X1668Y1045D02*
X1678Y1045D01*
X1716Y1045D02*
X1727Y1045D01*
X1468Y1044D02*
X1478Y1044D01*
X1516Y1044D02*
X1527Y1044D01*
X1568Y1044D02*
X1578Y1044D01*
X1616Y1044D02*
X1627Y1044D01*
X1668Y1044D02*
X1678Y1044D01*
X1716Y1044D02*
X1727Y1044D01*
X1468Y1043D02*
X1478Y1043D01*
X1517Y1043D02*
X1527Y1043D01*
X1568Y1043D02*
X1578Y1043D01*
X1616Y1043D02*
X1627Y1043D01*
X1668Y1043D02*
X1678Y1043D01*
X1716Y1043D02*
X1727Y1043D01*
X1468Y1042D02*
X1477Y1042D01*
X1517Y1042D02*
X1527Y1042D01*
X1568Y1042D02*
X1577Y1042D01*
X1617Y1042D02*
X1627Y1042D01*
X1668Y1042D02*
X1677Y1042D01*
X1717Y1042D02*
X1727Y1042D01*
X1468Y1041D02*
X1477Y1041D01*
X1517Y1041D02*
X1527Y1041D01*
X1568Y1041D02*
X1577Y1041D01*
X1617Y1041D02*
X1627Y1041D01*
X1668Y1041D02*
X1677Y1041D01*
X1717Y1041D02*
X1727Y1041D01*
X1468Y1040D02*
X1477Y1040D01*
X1517Y1040D02*
X1527Y1040D01*
X1568Y1040D02*
X1577Y1040D01*
X1617Y1040D02*
X1627Y1040D01*
X1668Y1040D02*
X1677Y1040D01*
X1717Y1040D02*
X1727Y1040D01*
X1468Y1039D02*
X1477Y1039D01*
X1517Y1039D02*
X1527Y1039D01*
X1568Y1039D02*
X1577Y1039D01*
X1617Y1039D02*
X1627Y1039D01*
X1668Y1039D02*
X1677Y1039D01*
X1717Y1039D02*
X1727Y1039D01*
X1468Y1038D02*
X1477Y1038D01*
X1517Y1038D02*
X1527Y1038D01*
X1568Y1038D02*
X1577Y1038D01*
X1617Y1038D02*
X1627Y1038D01*
X1668Y1038D02*
X1677Y1038D01*
X1717Y1038D02*
X1727Y1038D01*
X1468Y1037D02*
X1477Y1037D01*
X1518Y1037D02*
X1527Y1037D01*
X1568Y1037D02*
X1577Y1037D01*
X1617Y1037D02*
X1627Y1037D01*
X1668Y1037D02*
X1677Y1037D01*
X1717Y1037D02*
X1727Y1037D01*
X1468Y1036D02*
X1477Y1036D01*
X1517Y1036D02*
X1527Y1036D01*
X1568Y1036D02*
X1577Y1036D01*
X1617Y1036D02*
X1627Y1036D01*
X1668Y1036D02*
X1677Y1036D01*
X1717Y1036D02*
X1727Y1036D01*
X1468Y1035D02*
X1477Y1035D01*
X1517Y1035D02*
X1527Y1035D01*
X1568Y1035D02*
X1577Y1035D01*
X1617Y1035D02*
X1627Y1035D01*
X1668Y1035D02*
X1677Y1035D01*
X1717Y1035D02*
X1727Y1035D01*
X1468Y1034D02*
X1477Y1034D01*
X1517Y1034D02*
X1527Y1034D01*
X1568Y1034D02*
X1577Y1034D01*
X1617Y1034D02*
X1627Y1034D01*
X1668Y1034D02*
X1677Y1034D01*
X1717Y1034D02*
X1727Y1034D01*
X1468Y1033D02*
X1477Y1033D01*
X1517Y1033D02*
X1527Y1033D01*
X1568Y1033D02*
X1577Y1033D01*
X1617Y1033D02*
X1627Y1033D01*
X1668Y1033D02*
X1677Y1033D01*
X1717Y1033D02*
X1727Y1033D01*
X1468Y1032D02*
X1477Y1032D01*
X1517Y1032D02*
X1527Y1032D01*
X1568Y1032D02*
X1577Y1032D01*
X1617Y1032D02*
X1627Y1032D01*
X1668Y1032D02*
X1677Y1032D01*
X1717Y1032D02*
X1727Y1032D01*
X1468Y1031D02*
X1478Y1031D01*
X1517Y1031D02*
X1527Y1031D01*
X1568Y1031D02*
X1578Y1031D01*
X1616Y1031D02*
X1627Y1031D01*
X1668Y1031D02*
X1678Y1031D01*
X1716Y1031D02*
X1727Y1031D01*
X1468Y1030D02*
X1478Y1030D01*
X1516Y1030D02*
X1527Y1030D01*
X1568Y1030D02*
X1578Y1030D01*
X1616Y1030D02*
X1627Y1030D01*
X1668Y1030D02*
X1678Y1030D01*
X1716Y1030D02*
X1727Y1030D01*
X1468Y1029D02*
X1478Y1029D01*
X1516Y1029D02*
X1527Y1029D01*
X1568Y1029D02*
X1578Y1029D01*
X1616Y1029D02*
X1627Y1029D01*
X1668Y1029D02*
X1678Y1029D01*
X1716Y1029D02*
X1727Y1029D01*
X1468Y1028D02*
X1479Y1028D01*
X1515Y1028D02*
X1527Y1028D01*
X1568Y1028D02*
X1579Y1028D01*
X1615Y1028D02*
X1627Y1028D01*
X1668Y1028D02*
X1679Y1028D01*
X1715Y1028D02*
X1727Y1028D01*
X1468Y1027D02*
X1479Y1027D01*
X1515Y1027D02*
X1527Y1027D01*
X1568Y1027D02*
X1579Y1027D01*
X1615Y1027D02*
X1627Y1027D01*
X1668Y1027D02*
X1679Y1027D01*
X1715Y1027D02*
X1727Y1027D01*
X1468Y1026D02*
X1480Y1026D01*
X1514Y1026D02*
X1527Y1026D01*
X1568Y1026D02*
X1580Y1026D01*
X1614Y1026D02*
X1627Y1026D01*
X1668Y1026D02*
X1680Y1026D01*
X1714Y1026D02*
X1727Y1026D01*
X1468Y1025D02*
X1481Y1025D01*
X1513Y1025D02*
X1527Y1025D01*
X1568Y1025D02*
X1581Y1025D01*
X1613Y1025D02*
X1627Y1025D01*
X1668Y1025D02*
X1681Y1025D01*
X1713Y1025D02*
X1727Y1025D01*
X1468Y1024D02*
X1481Y1024D01*
X1513Y1024D02*
X1527Y1024D01*
X1568Y1024D02*
X1581Y1024D01*
X1613Y1024D02*
X1627Y1024D01*
X1668Y1024D02*
X1681Y1024D01*
X1713Y1024D02*
X1727Y1024D01*
X1468Y1023D02*
X1482Y1023D01*
X1512Y1023D02*
X1527Y1023D01*
X1568Y1023D02*
X1582Y1023D01*
X1612Y1023D02*
X1627Y1023D01*
X1668Y1023D02*
X1682Y1023D01*
X1712Y1023D02*
X1727Y1023D01*
X1468Y1022D02*
X1483Y1022D01*
X1511Y1022D02*
X1527Y1022D01*
X1568Y1022D02*
X1583Y1022D01*
X1611Y1022D02*
X1627Y1022D01*
X1668Y1022D02*
X1683Y1022D01*
X1711Y1022D02*
X1727Y1022D01*
X1468Y1021D02*
X1485Y1021D01*
X1509Y1021D02*
X1527Y1021D01*
X1568Y1021D02*
X1585Y1021D01*
X1609Y1021D02*
X1627Y1021D01*
X1668Y1021D02*
X1685Y1021D01*
X1709Y1021D02*
X1727Y1021D01*
X1468Y1020D02*
X1486Y1020D01*
X1508Y1020D02*
X1527Y1020D01*
X1568Y1020D02*
X1586Y1020D01*
X1608Y1020D02*
X1627Y1020D01*
X1668Y1020D02*
X1686Y1020D01*
X1708Y1020D02*
X1727Y1020D01*
X1468Y1019D02*
X1488Y1019D01*
X1506Y1019D02*
X1527Y1019D01*
X1568Y1019D02*
X1588Y1019D01*
X1606Y1019D02*
X1627Y1019D01*
X1668Y1019D02*
X1688Y1019D01*
X1706Y1019D02*
X1727Y1019D01*
X1468Y1018D02*
X1491Y1018D01*
X1503Y1018D02*
X1527Y1018D01*
X1568Y1018D02*
X1591Y1018D01*
X1603Y1018D02*
X1627Y1018D01*
X1668Y1018D02*
X1691Y1018D01*
X1703Y1018D02*
X1727Y1018D01*
X1468Y1017D02*
X1527Y1017D01*
X1568Y1017D02*
X1627Y1017D01*
X1668Y1017D02*
X1727Y1017D01*
X1468Y1016D02*
X1527Y1016D01*
X1568Y1016D02*
X1627Y1016D01*
X1668Y1016D02*
X1727Y1016D01*
X1468Y1015D02*
X1527Y1015D01*
X1568Y1015D02*
X1627Y1015D01*
X1668Y1015D02*
X1727Y1015D01*
X1468Y1014D02*
X1527Y1014D01*
X1568Y1014D02*
X1627Y1014D01*
X1668Y1014D02*
X1727Y1014D01*
X1468Y1013D02*
X1527Y1013D01*
X1568Y1013D02*
X1627Y1013D01*
X1668Y1013D02*
X1727Y1013D01*
X1468Y1012D02*
X1527Y1012D01*
X1568Y1012D02*
X1627Y1012D01*
X1668Y1012D02*
X1727Y1012D01*
X1468Y1011D02*
X1527Y1011D01*
X1568Y1011D02*
X1627Y1011D01*
X1668Y1011D02*
X1727Y1011D01*
X1468Y1010D02*
X1527Y1010D01*
X1568Y1010D02*
X1627Y1010D01*
X1668Y1010D02*
X1727Y1010D01*
X1468Y1009D02*
X1527Y1009D01*
X1568Y1009D02*
X1627Y1009D01*
X1668Y1009D02*
X1727Y1009D01*
X1468Y1008D02*
X1527Y1008D01*
X1568Y1008D02*
X1627Y1008D01*
X1668Y1008D02*
X1727Y1008D01*
X1468Y1007D02*
X1527Y1007D01*
X1568Y1007D02*
X1626Y1007D01*
X1668Y1007D02*
X1726Y1007D01*
X1468Y1006D02*
X1526Y1006D01*
X1568Y1006D02*
X1626Y1006D01*
X1668Y1006D02*
X1726Y1006D01*
X1468Y1005D02*
X1526Y1005D01*
X1568Y1005D02*
X1626Y1005D01*
X1668Y1005D02*
X1726Y1005D01*
X1468Y1004D02*
X1526Y1004D01*
X1568Y1004D02*
X1626Y1004D01*
X1668Y1004D02*
X1726Y1004D01*
X1468Y1003D02*
X1526Y1003D01*
X1568Y1003D02*
X1626Y1003D01*
X1668Y1003D02*
X1726Y1003D01*
X1468Y1002D02*
X1526Y1002D01*
X1568Y1002D02*
X1626Y1002D01*
X1668Y1002D02*
X1726Y1002D01*
X1468Y1001D02*
X1526Y1001D01*
X1568Y1001D02*
X1626Y1001D01*
X1668Y1001D02*
X1726Y1001D01*
X1468Y1000D02*
X1526Y1000D01*
X1568Y1000D02*
X1626Y1000D01*
X1668Y1000D02*
X1726Y1000D01*
X1469Y999D02*
X1525Y999D01*
X1569Y999D02*
X1625Y999D01*
X1669Y999D02*
X1725Y999D01*
X1469Y998D02*
X1525Y998D01*
X1569Y998D02*
X1625Y998D01*
X1669Y998D02*
X1725Y998D01*
X1469Y997D02*
X1525Y997D01*
X1569Y997D02*
X1625Y997D01*
X1669Y997D02*
X1725Y997D01*
X1470Y996D02*
X1524Y996D01*
X1570Y996D02*
X1624Y996D01*
X1670Y996D02*
X1724Y996D01*
X1470Y995D02*
X1524Y995D01*
X1570Y995D02*
X1624Y995D01*
X1670Y995D02*
X1724Y995D01*
X1471Y994D02*
X1524Y994D01*
X1571Y994D02*
X1623Y994D01*
X1671Y994D02*
X1723Y994D01*
X1471Y993D02*
X1523Y993D01*
X1571Y993D02*
X1623Y993D01*
X1671Y993D02*
X1723Y993D01*
X1472Y992D02*
X1522Y992D01*
X1572Y992D02*
X1622Y992D01*
X1672Y992D02*
X1722Y992D01*
X1472Y991D02*
X1522Y991D01*
X1572Y991D02*
X1622Y991D01*
X1672Y991D02*
X1722Y991D01*
X1473Y990D02*
X1521Y990D01*
X1573Y990D02*
X1621Y990D01*
X1673Y990D02*
X1721Y990D01*
X1474Y989D02*
X1520Y989D01*
X1574Y989D02*
X1620Y989D01*
X1674Y989D02*
X1720Y989D01*
X1474Y988D02*
X1520Y988D01*
X1574Y988D02*
X1620Y988D01*
X1674Y988D02*
X1720Y988D01*
X1475Y987D02*
X1519Y987D01*
X1575Y987D02*
X1619Y987D01*
X1675Y987D02*
X1719Y987D01*
X1476Y986D02*
X1518Y986D01*
X1576Y986D02*
X1618Y986D01*
X1676Y986D02*
X1718Y986D01*
X1477Y985D02*
X1517Y985D01*
X1577Y985D02*
X1617Y985D01*
X1677Y985D02*
X1717Y985D01*
X1478Y984D02*
X1516Y984D01*
X1578Y984D02*
X1616Y984D01*
X1678Y984D02*
X1716Y984D01*
X1480Y983D02*
X1514Y983D01*
X1580Y983D02*
X1614Y983D01*
X1680Y983D02*
X1714Y983D01*
X1481Y982D02*
X1513Y982D01*
X1581Y982D02*
X1613Y982D01*
X1681Y982D02*
X1713Y982D01*
X1483Y981D02*
X1511Y981D01*
X1583Y981D02*
X1611Y981D01*
X1683Y981D02*
X1711Y981D01*
X1485Y980D02*
X1509Y980D01*
X1585Y980D02*
X1609Y980D01*
X1685Y980D02*
X1709Y980D01*
X1487Y979D02*
X1507Y979D01*
X1587Y979D02*
X1607Y979D01*
X1687Y979D02*
X1707Y979D01*
X1490Y978D02*
X1504Y978D01*
X1590Y978D02*
X1604Y978D01*
X1690Y978D02*
X1704Y978D01*
D02*
G04 End of Copper0*
M02*